<svg width="45" height="45" viewBox="0 0 45 45" fill="none" xmlns="http://www.w3.org/2000/svg">
<g clip-path="url(#clip0_629_3540)">
<path d="M33.9745 33.3034C33.922 32.8936 33.7751 32.5016 33.5453 32.1583C33.3155 31.8149 33.0092 31.5296 32.6504 31.3248L24.3963 26.5714C23.8833 26.2766 23.2876 26.1589 22.7011 26.2365C22.1146 26.314 21.57 26.5825 21.1513 27.0004L19.0159 29.1371C18.8129 29.3398 18.542 29.46 18.2555 29.4745C17.969 29.489 17.6873 29.3967 17.4649 29.2155C16.1775 28.1735 14.946 27.0642 13.7758 25.8921C12.6038 24.7219 11.4944 23.4904 10.4524 22.203C10.2712 21.9806 10.179 21.6989 10.1934 21.4125C10.2079 21.126 10.3281 20.855 10.5308 20.652L12.6675 18.5153C13.0851 18.0967 13.3534 17.5523 13.4309 16.9661C13.5085 16.3799 13.391 15.7844 13.0965 15.2716L8.34178 7.01477C8.13688 6.65604 7.85154 6.34975 7.50821 6.11999C7.16487 5.89022 6.77291 5.74325 6.36315 5.69064C5.95397 5.63493 5.53743 5.67499 5.14636 5.80765C4.75529 5.94032 4.40036 6.16197 4.10953 6.45514L1.65928 8.90677C-1.83872 12.4048 1.8119 21.5361 9.97115 29.6954C16.0349 35.7591 22.6349 39.3341 27.0624 39.3328C28.5914 39.3328 29.8619 38.9065 30.7612 38.0073L33.21 35.557C33.5033 35.266 33.725 34.9108 33.8577 34.5195C33.9904 34.1282 34.0303 33.7114 33.9745 33.302V33.3034ZM32.2984 34.6454L31.9725 34.9726L24.9023 30.9384C24.7546 30.8632 24.5835 30.8477 24.4247 30.8953C24.2659 30.9428 24.1315 31.0497 24.0494 31.1937C23.9673 31.3377 23.9438 31.5078 23.9839 31.6687C24.0239 31.8296 24.1243 31.9689 24.2643 32.0576L31.0279 35.9173L29.8482 37.0956C28.5213 38.4239 25.7823 38.3593 22.3365 36.9169C18.657 35.3796 14.5898 32.4894 10.8828 28.7838C7.17578 25.0768 4.2869 21.0095 2.74965 17.33C1.30728 13.8843 1.24128 11.1453 2.5709 9.8184L3.82903 8.55889L4.2759 9.33577C4.31816 9.40917 4.37445 9.47353 4.44158 9.52517C4.5087 9.57682 4.58534 9.61473 4.66712 9.63676C4.7489 9.65878 4.83422 9.66449 4.9182 9.65354C5.00218 9.64259 5.08319 9.61521 5.15659 9.57296C5.22999 9.5307 5.29435 9.47441 5.34599 9.40728C5.39764 9.34016 5.43555 9.26352 5.45758 9.18174C5.4796 9.09996 5.48531 9.01464 5.47436 8.93066C5.46341 8.84667 5.43603 8.76567 5.39378 8.69227L4.77365 7.61564L5.02115 7.36814C5.17245 7.21544 5.35714 7.09994 5.56066 7.03075C5.76419 6.96155 5.981 6.94055 6.19403 6.96939C6.6299 7.02714 7.00528 7.27877 7.22528 7.65964L11.9787 15.9151C12.2935 16.4638 12.2014 17.1568 11.7545 17.6036L10.9735 18.3846L6.77153 11.0848C6.68619 10.9365 6.54547 10.8283 6.38031 10.7838C6.21515 10.7393 6.03908 10.7622 5.89084 10.8476C5.7426 10.9329 5.63433 11.0736 5.58985 11.2388C5.54537 11.404 5.56832 11.58 5.65365 11.7283L10.0303 19.3293L9.61778 19.7418C9.1899 20.1694 8.93566 20.7405 8.90417 21.3446C8.87269 21.9487 9.06618 22.5431 9.44728 23.0129C10.5181 24.3359 11.6582 25.6013 12.8628 26.8038C14.0657 28.0084 15.3316 29.1485 16.655 30.2193C17.1251 30.6005 17.7197 30.794 18.324 30.7625C18.9284 30.731 19.4997 30.4768 19.9275 30.0488L20.2245 29.7518L21.8154 30.6593C21.8888 30.7017 21.9699 30.7292 22.054 30.7401C22.138 30.7511 22.2234 30.7452 22.3053 30.723C22.3871 30.7008 22.4637 30.6625 22.5306 30.6105C22.5976 30.5585 22.6536 30.4938 22.6954 30.42C22.7374 30.3464 22.7645 30.2653 22.7752 30.1813C22.7858 30.0972 22.7798 30.0119 22.7574 29.9302C22.7351 29.8484 22.6969 29.7719 22.6449 29.705C22.593 29.638 22.5284 29.582 22.4548 29.54L21.1692 28.8071L22.0629 27.9134C22.2807 27.6959 22.5641 27.5562 22.8692 27.5156C23.1744 27.4751 23.4844 27.5362 23.7514 27.6893L32.0083 32.4426C32.3892 32.6626 32.6408 33.0366 32.6972 33.4725C32.726 33.6855 32.705 33.9024 32.6358 34.1059C32.5666 34.3094 32.4511 34.4941 32.2984 34.6454Z" fill="#1A1A1A"/>
<path d="M20.9522 22.2044H16.1232C16.3487 20.3207 17.5545 19.0419 18.8237 17.6958C20.1877 16.252 21.597 14.7574 21.597 12.5134C21.596 11.6119 21.2374 10.7476 20.5999 10.1102C19.9624 9.47273 19.0982 9.11413 18.1967 9.11304C17.2949 9.11376 16.4303 9.47221 15.7926 10.1097C15.1548 10.7472 14.796 11.6117 14.7949 12.5134C14.7949 12.6844 14.8629 12.8485 14.9838 12.9694C15.1047 13.0903 15.2688 13.1583 15.4398 13.1583C15.6108 13.1583 15.7749 13.0903 15.8958 12.9694C16.0167 12.8485 16.0847 12.6844 16.0847 12.5134C16.0847 11.3488 17.032 10.4028 18.1967 10.4028C19.3599 10.4028 20.3073 11.3488 20.3073 12.5134C20.3073 14.2459 19.1853 15.4339 17.8873 16.8117C16.438 18.3475 14.7949 20.0883 14.7949 22.8479C14.7949 23.2054 15.0837 23.4942 15.4412 23.4942H20.9522C21.1232 23.4942 21.2872 23.4262 21.4082 23.3053C21.5291 23.1843 21.597 23.0203 21.597 22.8493C21.597 22.6783 21.5291 22.5142 21.4082 22.3933C21.2872 22.2724 21.1232 22.2044 20.9522 22.2044Z" fill="#1A1A1A"/>
<path d="M29.2201 18.76H28.4872V9.75648C28.4872 9.58545 28.4192 9.42142 28.2983 9.30049C28.1774 9.17955 28.0133 9.11161 27.8423 9.11161C27.6713 9.11161 27.5072 9.17955 27.3863 9.30049C27.2654 9.42142 27.1974 9.58545 27.1974 9.75648V18.7572H23.7641L25.0373 9.84723C25.0493 9.76336 25.0447 9.67794 25.0237 9.59586C25.0027 9.51377 24.9657 9.43663 24.9149 9.36883C24.8641 9.30103 24.8004 9.24391 24.7275 9.20072C24.6546 9.15753 24.5739 9.12912 24.4901 9.11711C24.4062 9.1051 24.3208 9.10973 24.2387 9.13073C24.1566 9.15174 24.0795 9.1887 24.0117 9.23952C23.9439 9.29034 23.8867 9.35401 23.8435 9.4269C23.8004 9.4998 23.7719 9.58048 23.7599 9.66436L22.3822 19.3114C22.3694 19.4027 22.3764 19.4958 22.4026 19.5842C22.4288 19.6727 22.4736 19.7545 22.534 19.8242C22.5945 19.8938 22.6691 19.9498 22.753 19.9882C22.8368 20.0267 22.9279 20.0467 23.0202 20.047H27.1988V22.8465C27.1988 22.9312 27.2155 23.015 27.2479 23.0933C27.2803 23.1715 27.3278 23.2426 27.3877 23.3025C27.4476 23.3624 27.5187 23.4099 27.5969 23.4423C27.6751 23.4747 27.759 23.4914 27.8437 23.4914C27.9284 23.4914 28.0122 23.4747 28.0905 23.4423C28.1687 23.4099 28.2398 23.3624 28.2997 23.3025C28.3596 23.2426 28.4071 23.1715 28.4395 23.0933C28.4719 23.015 28.4886 22.9312 28.4886 22.8465V20.047H29.2214C29.3925 20.047 29.5565 19.979 29.6774 19.8581C29.7984 19.7372 29.8663 19.5731 29.8663 19.4021C29.8663 19.2311 29.7984 19.0671 29.6774 18.9461C29.5565 18.8252 29.3925 18.7572 29.2214 18.7572L29.2201 18.76Z" fill="#1A1A1A"/>
<path d="M44.2102 9.37704C44.1503 9.29512 44.0718 9.22852 43.9813 9.18264C43.8907 9.13677 43.7906 9.11292 43.6891 9.11304H38.8656C38.6945 9.11304 38.5305 9.18098 38.4096 9.30192C38.2886 9.42285 38.2207 9.58688 38.2207 9.75791C38.2207 9.92894 38.2886 10.093 38.4096 10.2139C38.5305 10.3348 38.6945 10.4028 38.8656 10.4028H42.8091L38.9412 22.654C38.8943 22.8157 38.9125 22.9893 38.9919 23.1377C39.0712 23.2861 39.2055 23.3977 39.3659 23.4485C39.5264 23.4993 39.7004 23.4853 39.8507 23.4096C40.001 23.3339 40.1158 23.2024 40.1705 23.0432L44.3037 9.95179C44.334 9.85525 44.3412 9.75294 44.3247 9.65312C44.3082 9.55329 44.2685 9.45872 44.2088 9.37704H44.2102Z" fill="#1A1A1A"/>
<path d="M36.2831 7.06978C36.1186 7.02411 35.9428 7.0455 35.7941 7.12927C35.6454 7.21303 35.5359 7.35234 35.4897 7.51666L30.6662 24.7413C30.6243 24.9046 30.648 25.0778 30.7323 25.2238C30.8165 25.3698 30.9546 25.477 31.1169 25.5225C31.2792 25.568 31.4529 25.5481 31.6007 25.4671C31.7486 25.3861 31.8588 25.2504 31.9079 25.0892L36.73 7.86453C36.7528 7.78291 36.7593 7.6976 36.7491 7.61348C36.7389 7.52936 36.7122 7.44806 36.6706 7.37425C36.6289 7.30044 36.5732 7.23556 36.5065 7.18332C36.4397 7.13108 36.3634 7.09249 36.2817 7.06978H36.2831Z" fill="#1A1A1A"/>
</g>
<defs>
<clipPath id="clip0_629_3540">
<rect width="44" height="44" fill="white" transform="translate(0.333496 0.5)"/>
</clipPath>
</defs>
</svg>
