<svg width="40" height="41" viewBox="0 0 40 41" fill="none" xmlns="http://www.w3.org/2000/svg">
<g clip-path="url(#clip0_629_3548)">
<path d="M38.4163 9.3259L20.2547 0.558242C20.0937 0.480586 19.9062 0.480586 19.7453 0.558242L1.58361 9.3259C1.38111 9.42363 1.25244 9.62871 1.25244 9.85355V31.1464C1.25244 31.3713 1.38111 31.5764 1.58361 31.6741L19.7452 40.4418C19.8256 40.4806 19.9128 40.5 19.9999 40.5C20.087 40.5 20.1742 40.4806 20.2547 40.4418L38.4163 31.6741C38.6188 31.5764 38.7474 31.3713 38.7474 31.1464V9.85363C38.7474 9.62863 38.6187 9.42371 38.4163 9.3259ZM19.9999 1.7366L36.8138 9.85355L31.9398 12.2065C31.9089 12.183 31.8763 12.1613 31.8406 12.144L15.141 4.0823L19.9999 1.7366ZM13.8177 4.7448L30.607 12.85L27.1684 14.51L10.386 6.40816L13.8177 4.7448ZM30.9999 13.9615V20.0979L27.7879 21.6486V15.5121L30.9999 13.9615ZM37.5756 30.7788L20.5859 38.9805V18.9889L24.6385 17.0325C24.9299 16.8918 25.052 16.5416 24.9113 16.2501C24.7706 15.9588 24.4204 15.8364 24.1289 15.9772L19.9999 17.9706L18.3753 17.1862C18.0838 17.0454 17.7335 17.1677 17.5928 17.4591C17.4521 17.7505 17.5743 18.1008 17.8657 18.2415L19.414 18.9889V38.9805L2.42432 30.7786V10.7871L15.3618 17.0328C15.4439 17.0725 15.5307 17.0912 15.6161 17.0912C15.8339 17.0912 16.0431 16.9692 16.1442 16.7599C16.2849 16.4685 16.1627 16.1182 15.8713 15.9775L3.18611 9.85355L9.00682 7.04356L26.6079 15.5407C26.6105 15.5443 26.6134 15.5475 26.616 15.551V22.5821C26.616 22.7838 26.7197 22.9712 26.8905 23.0785C26.9853 23.138 27.0935 23.1681 27.202 23.1681C27.2889 23.1681 27.376 23.1488 27.4567 23.1098L31.8406 20.9935C32.0431 20.8957 32.1717 20.6907 32.1717 20.4658V13.3959L37.5756 10.7871V30.7788Z" fill="black"/>
<path d="M7.25998 28.5063L4.59475 27.2196C4.30318 27.0788 3.95303 27.2011 3.81232 27.4925C3.67162 27.7839 3.79381 28.1342 4.08521 28.2749L6.75045 29.5616C6.83256 29.6012 6.91936 29.62 7.00475 29.62C7.22256 29.62 7.43178 29.498 7.5328 29.2887C7.67358 28.9972 7.55139 28.647 7.25998 28.5063Z" fill="black"/>
<path d="M9.71257 26.9096L4.59811 24.4405C4.30663 24.2998 3.9564 24.422 3.81569 24.7135C3.67507 25.0049 3.79725 25.3552 4.08866 25.4959L9.20311 27.965C9.28522 28.0046 9.37202 28.0234 9.45741 28.0234C9.67522 28.0234 9.88444 27.9014 9.98546 27.6921C10.1262 27.4005 10.004 27.0502 9.71257 26.9096Z" fill="black"/>
</g>
<defs>
<clipPath id="clip0_629_3548">
<rect width="40" height="40" fill="white" transform="translate(0 0.5)"/>
</clipPath>
</defs>
</svg>
