<svg width="40" height="41" viewBox="0 0 40 41" fill="none" xmlns="http://www.w3.org/2000/svg">
<path d="M32.7021 26.8041C31.7247 26.8041 30.7962 27.187 30.0957 27.8793C29.3952 28.5798 29.0043 29.492 29.0043 30.4694C29.0043 31.4468 29.3871 32.359 30.0957 33.0595C30.8043 33.7518 31.7247 34.1346 32.7021 34.1346C34.7058 34.1346 36.3348 32.4893 36.3348 30.4694C36.3348 28.4494 34.7058 26.8041 32.7021 26.8041ZM32.7021 32.5056C31.5781 32.5056 30.6333 31.5771 30.6333 30.4694C30.6333 29.3617 31.5781 28.4331 32.7021 28.4331C33.8098 28.4331 34.7058 29.3454 34.7058 30.4694C34.7058 31.5934 33.8098 32.5056 32.7021 32.5056ZM33.6469 14.5948C33.5003 14.4564 33.3048 14.383 33.1012 14.383H28.9228C28.4749 14.383 28.1083 14.7496 28.1083 15.1975V21.8764C28.1083 22.3244 28.4749 22.6909 28.9228 22.6909H35.5528C36.0008 22.6909 36.3673 22.3244 36.3673 21.8764V17.4048C36.3673 17.1768 36.2696 16.9569 36.0986 16.8021L33.6469 14.5948ZM34.7383 21.0619H29.7373V16.0039H32.7835L34.7383 17.7632V21.0619ZM12.8121 26.8041C11.8347 26.8041 10.9061 27.187 10.2057 27.8793C9.50519 28.5798 9.11423 29.492 9.11423 30.4694C9.11423 31.4468 9.49705 32.359 10.2057 33.0595C10.9143 33.7518 11.8347 34.1346 12.8121 34.1346C14.8157 34.1346 16.4447 32.4893 16.4447 30.4694C16.4447 28.4494 14.8157 26.8041 12.8121 26.8041ZM12.8121 32.5056C11.688 32.5056 10.7432 31.5771 10.7432 30.4694C10.7432 29.3617 11.688 28.4331 12.8121 28.4331C13.9198 28.4331 14.8157 29.3454 14.8157 30.4694C14.8157 31.5934 13.9198 32.5056 12.8121 32.5056ZM7.37935 27.806H5.74221V25.6394C5.74221 25.1914 5.37569 24.8249 4.92771 24.8249C4.47974 24.8249 4.11322 25.1914 4.11322 25.6394V28.6205C4.11322 29.0684 4.47974 29.435 4.92771 29.435H7.37935C7.82733 29.435 8.19385 29.0684 8.19385 28.6205C8.19385 28.1725 7.82733 27.806 7.37935 27.806ZM11.5089 23.367C11.5089 22.919 11.1423 22.5525 10.6944 22.5525H0.814498C0.366524 22.5525 0 22.919 0 23.367C0 23.8149 0.366524 24.1815 0.814498 24.1815H10.6944C11.1423 24.1815 11.5089 23.8231 11.5089 23.367ZM2.46793 20.4266L12.3478 20.4836C12.7958 20.4836 13.1623 20.1253 13.1704 19.6773C13.1786 19.2212 12.8121 18.8546 12.3641 18.8546L2.48422 18.7976C2.47607 18.7976 2.47607 18.7976 2.47607 18.7976C2.0281 18.7976 1.66158 19.156 1.66158 19.604C1.65343 20.0601 2.01996 20.4266 2.46793 20.4266ZM4.12951 16.7288H14.0094C14.4573 16.7288 14.8239 16.3623 14.8239 15.9143C14.8239 15.4663 14.4573 15.0998 14.0094 15.0998H4.12951C3.68153 15.0998 3.31501 15.4663 3.31501 15.9143C3.31501 16.3623 3.68153 16.7288 4.12951 16.7288ZM39.6986 15.6292L33.8668 10.7993C33.7202 10.6771 33.541 10.6119 33.3456 10.6119H26.4875V7.67973C26.4875 7.23176 26.121 6.86523 25.673 6.86523H4.92771C4.47974 6.86523 4.11322 7.23176 4.11322 7.67973V13.6419C4.11322 14.0898 4.47974 14.4564 4.92771 14.4564C5.37569 14.4564 5.74221 14.0898 5.74221 13.6419V8.49423H24.8666V27.806H18.1877C17.7398 27.806 17.3732 28.1725 17.3732 28.6205C17.3732 29.0684 17.7398 29.435 18.1877 29.435H28.1328C28.5807 29.435 28.9473 29.0684 28.9473 28.6205C28.9473 28.1725 28.5807 27.806 28.1328 27.806H26.4956V12.2409H33.0605L38.371 16.6392L38.314 27.7897H37.4669C37.0189 27.7897 36.6524 28.1562 36.6524 28.6042C36.6524 29.0522 37.0189 29.4187 37.4669 29.4187H39.1203C39.5683 29.4187 39.9348 29.0603 39.9348 28.6123L40 16.2645C39.9919 16.0202 39.886 15.784 39.6986 15.6292Z" fill="url(#paint0_linear_629_3500)"/>
<defs>
<linearGradient id="paint0_linear_629_3500" x1="0" y1="20.4999" x2="40" y2="20.4999" gradientUnits="userSpaceOnUse">
<stop stop-color="#FF0000" stop-opacity="0.8"/>
<stop offset="1" stop-color="#7B70B4"/>
</linearGradient>
</defs>
</svg>
