<svg width="41" height="41" viewBox="0 0 41 41" fill="none" xmlns="http://www.w3.org/2000/svg">
<g clip-path="url(#clip0_629_3527)">
<path d="M34.3513 15.7101V14.1723C34.3513 10.4916 33.0487 7.07143 30.6874 4.53361C28.2672 1.92857 24.9395 0.5 21.3093 0.5H20.0403C16.4101 0.5 13.0824 1.92857 10.6622 4.53361C8.30085 7.07143 6.99833 10.4916 6.99833 14.1723V15.7101C4.13278 15.9034 1.85547 18.2899 1.85547 21.2059V23.6092C1.85547 26.6429 4.32606 29.1134 7.35967 29.1134H10.4605C11.0151 29.1134 11.4689 28.6597 11.4689 28.105V16.7017C11.4689 16.1471 11.0151 15.6933 10.4605 15.6933H9.01513V14.1723C9.01513 7.52521 13.7546 2.51681 20.0319 2.51681H21.3008C27.5866 2.51681 32.3177 7.52521 32.3177 14.1723V15.6933H30.8723C30.3177 15.6933 29.8639 16.1471 29.8639 16.7017V28.0966C29.8639 28.6513 30.3177 29.105 30.8723 29.105H32.284C31.8723 34.3655 28.2504 35.584 26.5698 35.8613C26.1076 34.4412 24.7714 33.416 23.2 33.416H20.679C18.7294 33.416 17.1412 35.0042 17.1412 36.9538C17.1412 38.9034 18.7294 40.5 20.679 40.5H23.2084C24.8387 40.5 26.2084 39.3908 26.6202 37.895C27.4437 37.7773 28.7462 37.4832 30.0403 36.7269C31.8639 35.6597 34.0235 33.4832 34.3093 29.0966C37.1916 28.9202 39.4773 26.5252 39.4773 23.6008V21.1975C39.4857 18.2899 37.2168 15.895 34.3513 15.7101ZM9.46891 27.0882H7.37648C5.45211 27.0882 3.88908 25.5252 3.88908 23.6008V21.1975C3.88908 19.2731 5.45211 17.7101 7.37648 17.7101H9.46891V27.0882ZM23.2084 38.4832H20.679C19.8387 38.4832 19.158 37.8025 19.158 36.9622C19.158 36.1218 19.8387 35.4412 20.679 35.4412H23.2084C24.0487 35.4412 24.7294 36.1218 24.7294 36.9622C24.7294 37.8025 24.0487 38.4832 23.2084 38.4832ZM37.4689 23.6008C37.4689 25.5252 35.9059 27.0882 33.9815 27.0882H31.8891V17.7101H33.9815C35.9059 17.7101 37.4689 19.2731 37.4689 21.1975V23.6008Z" fill="url(#paint0_linear_629_3527)"/>
</g>
<defs>
<linearGradient id="paint0_linear_629_3527" x1="1.85547" y1="20.5" x2="39.4773" y2="20.5" gradientUnits="userSpaceOnUse">
<stop stop-color="#FF0000" stop-opacity="0.8"/>
<stop offset="1" stop-color="#7B70B4"/>
</linearGradient>
<clipPath id="clip0_629_3527">
<rect width="40" height="40" fill="white" transform="translate(0.666504 0.5)"/>
</clipPath>
</defs>
</svg>
