<svg width="33" height="26" viewBox="0 0 33 26" fill="none" xmlns="http://www.w3.org/2000/svg">
<path opacity="0.3" fill-rule="evenodd" clip-rule="evenodd" d="M24.3222 0C20.9357 0 18.1851 2.65696 18.1851 5.9336C18.1851 9.20821 20.9357 11.8672 24.3222 11.8672C30.1404 11.8672 26.7689 22.171 19.431 23.2443C19.0848 23.2936 18.7688 23.4578 18.5403 23.7071C18.3117 23.9563 18.1857 24.2742 18.1851 24.6032C18.1851 25.4456 18.987 26.1119 19.8751 25.9843C33.2122 24.0847 37.9546 0.00202497 24.3222 0.00202497V0ZM6.63933 0C3.24847 0 0.5 2.65493 0.5 5.9336C0.5 9.20619 3.24847 11.8631 6.63933 11.8631C12.4553 11.8631 9.08385 22.171 1.74597 23.2443C1.40012 23.2936 1.08443 23.4575 0.855931 23.7063C0.627431 23.9551 0.501187 24.2725 0.5 24.6011C0.5 25.4436 1.30191 26.1098 2.18788 25.9823C15.5293 24.0827 20.2717 0 6.63933 0Z" fill="#00B307"/>
</svg>
