<svg width="40" height="41" viewBox="0 0 40 41" fill="none" xmlns="http://www.w3.org/2000/svg">
<g clip-path="url(#clip0_629_3586)">
<path d="M38.3957 9.93014C38.3957 9.77818 38.3619 9.62621 38.2944 9.48269C38.1593 9.19565 37.8976 9.00148 37.6105 8.94238L20.4134 0.601309C20.1348 0.46623 19.8056 0.46623 19.527 0.601309L2.161 9.01836C1.8233 9.17877 1.6038 9.51646 1.58691 9.89637V9.90481C1.58691 9.91325 1.58691 9.9217 1.58691 9.93858V31.0614C1.58691 31.4498 1.80642 31.8043 2.161 31.9732L19.527 40.3903C19.5354 40.3903 19.5354 40.3903 19.5439 40.3987C19.5692 40.4071 19.5945 40.4156 19.6198 40.4325C19.6283 40.4325 19.6367 40.4409 19.6536 40.4409C19.6789 40.4493 19.7043 40.4578 19.7296 40.4662C19.738 40.4662 19.7465 40.4747 19.7549 40.4747C19.7802 40.4831 19.814 40.4831 19.8393 40.4916C19.8478 40.4916 19.8562 40.4916 19.8647 40.4916C19.8984 40.4916 19.9406 40.5 19.9744 40.5C20.0082 40.5 20.0504 40.5 20.0842 40.4916C20.0926 40.4916 20.1011 40.4916 20.1095 40.4916C20.1348 40.4916 20.1686 40.4831 20.1939 40.4747C20.2024 40.4747 20.2108 40.4662 20.2192 40.4662C20.2446 40.4578 20.2699 40.4493 20.2952 40.4409C20.3037 40.4409 20.3121 40.4325 20.329 40.4325C20.3543 40.424 20.3797 40.4156 20.405 40.3987C20.4134 40.3987 20.4134 40.3987 20.4219 40.3903L37.8385 31.9479C38.1846 31.779 38.4126 31.4244 38.4126 31.0361V9.95547C38.3957 9.94702 38.3957 9.93858 38.3957 9.93014ZM19.966 2.63592L35.0272 9.93858L29.4805 12.6317L14.4193 5.32904L19.966 2.63592ZM19.966 17.2412L4.90477 9.93858L12.0977 6.45188L27.1589 13.7545L19.966 17.2412ZM3.61309 11.568L18.9529 19.0057V37.8575L3.61309 30.4198V11.568ZM20.9791 37.8575V19.0057L28.1804 15.5106V20.4409C28.1804 20.9981 28.6363 21.454 29.1935 21.454C29.7507 21.454 30.2066 20.9981 30.2066 20.4409V14.5228L36.3695 11.5342V30.386L20.9791 37.8575Z" fill="url(#paint0_linear_629_3586)"/>
</g>
<defs>
<linearGradient id="paint0_linear_629_3586" x1="1.58691" y1="20.5" x2="38.4126" y2="20.5" gradientUnits="userSpaceOnUse">
<stop stop-color="#FF0000" stop-opacity="0.8"/>
<stop offset="1" stop-color="#7B70B4"/>
</linearGradient>
<clipPath id="clip0_629_3586">
<rect width="40" height="40" fill="white" transform="translate(0 0.5)"/>
</clipPath>
</defs>
</svg>
