<svg width="28" height="29" viewBox="0 0 28 29" fill="none" xmlns="http://www.w3.org/2000/svg">
<path d="M17.436 4.875C18.9194 5.27396 20.2719 6.05567 21.3581 7.14184C22.4442 8.22801 23.226 9.58051 23.6249 11.0639" stroke="white" stroke-width="1.5" stroke-linecap="round" stroke-linejoin="round"/>
<path d="M16.5308 8.2569C17.4206 8.49628 18.2319 8.96524 18.8835 9.61681C19.535 10.2684 20.004 11.0797 20.2434 11.9695" stroke="white" stroke-width="1.5" stroke-linecap="round" stroke-linejoin="round"/>
<path d="M10.115 14.1518C11.0224 16.0074 12.5263 17.5049 14.3859 18.4043C14.522 18.4688 14.6727 18.4966 14.8229 18.4851C14.9731 18.4736 15.1178 18.4231 15.2425 18.3386L17.9812 16.5134C18.1022 16.4326 18.2414 16.3833 18.3862 16.3698C18.5311 16.3564 18.677 16.3793 18.8107 16.4364L23.9339 18.6326C24.1079 18.7066 24.2532 18.835 24.3479 18.9987C24.4426 19.1623 24.4815 19.3523 24.4589 19.54C24.2967 20.807 23.6784 21.9714 22.7196 22.8154C21.7608 23.6593 20.5273 24.1249 19.25 24.125C15.3049 24.125 11.5214 22.5578 8.73179 19.7682C5.94218 16.9786 4.375 13.1951 4.375 9.25001C4.37512 7.9728 4.84074 6.73942 5.68471 5.78079C6.52867 4.82215 7.6931 4.20398 8.96 4.04201C9.14771 4.01938 9.33769 4.05833 9.50134 4.15302C9.66499 4.24771 9.79345 4.393 9.86738 4.56701L12.0654 9.69451C12.1219 9.827 12.1449 9.97139 12.1322 10.1149C12.1195 10.2583 12.0716 10.3965 11.9928 10.517L10.1728 13.2978C10.0901 13.423 10.0414 13.5675 10.0313 13.7171C10.0212 13.8668 10.05 14.0166 10.115 14.1518V14.1518Z" stroke="white" stroke-width="1.5" stroke-linecap="round" stroke-linejoin="round"/>
</svg>
