<svg width="49" height="49" viewBox="0 0 49 49" fill="none" xmlns="http://www.w3.org/2000/svg">
<g clip-path="url(#clip0_629_3534)">
<path d="M11.1396 35.4456C10.7537 35.4456 10.3836 35.5988 10.1107 35.8717C9.83786 36.1446 9.68457 36.5147 9.68457 36.9006C9.68457 37.2864 9.83786 37.6565 10.1107 37.9294C10.3836 38.2023 10.7537 38.3556 11.1396 38.3556C11.5255 38.3556 11.8955 38.2023 12.1684 37.9294C12.4413 37.6565 12.5946 37.2864 12.5946 36.9006C12.5946 36.5147 12.4413 36.1446 12.1684 35.8717C11.8955 35.5988 11.5255 35.4456 11.1396 35.4456Z" fill="#1A1A1A"/>
<path d="M41.1996 35.4456C40.8137 35.4456 40.4437 35.5988 40.1708 35.8717C39.8979 36.1446 39.7446 36.5147 39.7446 36.9006C39.7446 37.2864 39.8979 37.6565 40.1708 37.9294C40.4437 38.2023 40.8137 38.3556 41.1996 38.3556C41.5855 38.3556 41.9556 38.2023 42.2285 37.9294C42.5013 37.6565 42.6546 37.2864 42.6546 36.9006C42.6546 36.5147 42.5013 36.1446 42.2285 35.8717C41.9556 35.5988 41.5855 35.4456 41.1996 35.4456Z" fill="#1A1A1A"/>
<path d="M46.6445 24.446L41.7365 22.811L38.654 14.7965C38.4373 14.2401 38.0582 13.7617 37.566 13.4235C37.0737 13.0854 36.4912 12.9032 35.894 12.9005H23.1875L23.1725 12.725C23.1427 12.3619 22.9768 12.0235 22.7082 11.7773C22.4395 11.5312 22.0878 11.3956 21.7235 11.3975H19.3565V10.595C19.3553 9.81104 19.0432 9.05951 18.4887 8.50527C17.9342 7.95104 17.1825 7.63934 16.3985 7.63855C15.6148 7.63974 14.8635 7.95161 14.3093 8.5058C13.7551 9.06 13.4432 9.8113 13.442 10.595V11.396H11.0765C10.7122 11.3941 10.3605 11.5297 10.0918 11.7758C9.82319 12.022 9.65736 12.3604 9.6275 12.7235L9.6125 12.899H2.1215C1.73561 12.899 1.36553 13.0523 1.09266 13.3252C0.819798 13.5981 0.666504 13.9682 0.666504 14.354L0.666504 34.6446C0.666504 35.4456 1.319 36.0995 2.1215 36.0995H6.752C6.63572 36.7423 6.66185 37.4027 6.82856 38.0343C6.99527 38.6658 7.29851 39.2531 7.71688 39.7547C8.13525 40.2564 8.65857 40.6601 9.24993 40.9375C9.8413 41.2148 10.4863 41.3591 11.1395 41.36C11.7928 41.3591 12.438 41.2148 13.0295 40.9374C13.621 40.6599 14.1444 40.256 14.5628 39.7543C14.9812 39.2525 15.2844 38.665 15.451 38.0332C15.6176 37.4015 15.6435 36.7409 15.527 36.098H36.812C36.6957 36.7408 36.7219 37.4012 36.8886 38.0328C37.0553 38.6643 37.3585 39.2516 37.7769 39.7532C38.1952 40.2549 38.7186 40.6586 39.3099 40.9359C39.9013 41.2133 40.5463 41.3576 41.1995 41.3585C41.8708 41.3575 42.5331 41.2051 43.1374 40.9128C43.7416 40.6205 44.2722 40.1957 44.6896 39.67C45.107 39.1443 45.4006 38.5313 45.5484 37.8765C45.6963 37.2218 45.6946 36.5421 45.5435 35.888L47.0315 35.1441C47.5236 34.9001 47.9376 34.5232 48.2266 34.0561C48.5155 33.589 48.6679 33.0503 48.6665 32.501V27.251C48.6667 26.6304 48.4716 26.0254 48.1086 25.5219C47.7457 25.0184 47.2334 24.642 46.6445 24.446ZM38.1155 17.312L40.1765 22.67H37.949L36.164 17.312H38.114H38.1155ZM36.4655 22.67H30.6785C30.4666 22.6697 30.2635 22.5853 30.1136 22.4354C29.9638 22.2856 29.8794 22.0825 29.879 21.8705V17.312H34.6805L36.4655 22.67ZM14.8505 10.595C14.8505 9.74005 15.5465 9.04405 16.4015 9.04405C17.2565 9.04405 17.9525 9.74005 17.9525 10.595V11.396H14.849V10.595H14.8505ZM9.656 28.6295L11.0285 12.8481C11.0293 12.8358 11.0347 12.8244 11.0436 12.816C11.0525 12.8077 11.0643 12.803 11.0765 12.803H13.442V14.354C13.442 14.5406 13.5161 14.7196 13.6481 14.8515C13.78 14.9834 13.9589 15.0575 14.1455 15.0575C14.3321 15.0575 14.511 14.9834 14.643 14.8515C14.7749 14.7196 14.849 14.5406 14.849 14.354V12.803H17.951V14.354C17.951 14.5406 18.0251 14.7196 18.1571 14.8515C18.289 14.9834 18.4679 15.0575 18.6545 15.0575C18.8411 15.0575 19.02 14.9834 19.152 14.8515C19.2839 14.7196 19.358 14.5406 19.358 14.354V12.803H21.7235C21.749 12.803 21.7685 12.8226 21.7715 12.8481L23.144 28.628C23.144 28.6355 23.144 28.6505 23.1305 28.6655C23.1155 28.6805 23.1005 28.6805 23.0945 28.6805H9.7055C9.6995 28.6805 9.6845 28.6805 9.6695 28.6655C9.665 28.6608 9.6616 28.6551 9.65952 28.6489C9.65745 28.6427 9.65676 28.6361 9.6575 28.6295H9.656ZM11.1395 39.9545C10.3296 39.9538 9.55315 39.6318 8.98035 39.0593C8.40754 38.4867 8.0852 37.7104 8.084 36.9005C8.084 35.216 9.455 33.845 11.1395 33.845C12.824 33.845 14.1935 35.216 14.1935 36.9005C14.1923 37.7102 13.8702 38.4863 13.2977 39.0587C12.7252 39.6312 11.9491 39.9534 11.1395 39.9545ZM41.1995 39.9545C40.3899 39.9534 39.6138 39.6312 39.0413 39.0587C38.4688 38.4863 38.1467 37.7102 38.1455 36.9005C38.1455 35.216 39.515 33.845 41.1995 33.845C42.884 33.845 44.255 35.216 44.255 36.9005C44.2538 37.7104 43.9315 38.4867 43.3587 39.0593C42.7859 39.6318 42.0094 39.9538 41.1995 39.9545ZM47.2595 28.682H46.46C46.365 28.6777 46.2701 28.6926 46.181 28.7259C46.0919 28.7593 46.0105 28.8103 45.9417 28.876C45.8729 28.9417 45.8181 29.0206 45.7807 29.1081C45.7433 29.1955 45.724 29.2897 45.724 29.3848C45.724 29.4799 45.7433 29.574 45.7807 29.6615C45.8181 29.749 45.8729 29.8279 45.9417 29.8936C46.0105 29.9593 46.0919 30.0103 46.181 30.0437C46.2701 30.077 46.365 30.0919 46.46 30.0875H47.261V32.4995C47.261 33.0921 46.931 33.6245 46.403 33.8885L45.011 34.5845C44.6133 33.9302 44.054 33.3891 43.3867 33.0135C42.7194 32.6378 41.9667 32.4402 41.201 32.4395C39.542 32.4395 38.0945 33.3485 37.325 34.694H15.014C14.6245 34.0099 14.0609 33.441 13.3804 33.045C12.6999 32.649 11.9268 32.4402 11.1395 32.4395C9.482 32.4395 8.0345 33.3485 7.265 34.694H2.12C2.10754 34.6937 2.09571 34.6884 2.08703 34.6795C2.07835 34.6705 2.0735 34.6585 2.0735 34.646V30.0875H5.879C5.97402 30.0919 6.06894 30.077 6.15803 30.0437C6.24712 30.0103 6.32852 29.9593 6.39731 29.8936C6.46611 29.8279 6.52086 29.749 6.55828 29.6615C6.59569 29.574 6.61498 29.4799 6.61498 29.3848C6.61498 29.2897 6.59569 29.1955 6.55828 29.1081C6.52086 29.0206 6.46611 28.9417 6.39731 28.876C6.32852 28.8103 6.24712 28.7593 6.15803 28.7259C6.06894 28.6926 5.97402 28.6777 5.879 28.682H2.072V14.354C2.072 14.3285 2.0945 14.3061 2.1215 14.3061H9.4895L8.255 28.508C8.23822 28.7087 8.26319 28.9107 8.32834 29.1013C8.39349 29.2918 8.49741 29.4668 8.63354 29.6152C8.76968 29.7636 8.93507 29.8822 9.11931 29.9635C9.30355 30.0448 9.50263 30.087 9.704 30.0875H23.0945C23.2959 30.087 23.4951 30.0447 23.6794 29.9635C23.8637 29.8822 24.0292 29.7636 24.1654 29.6152C24.3017 29.4669 24.4057 29.2919 24.4711 29.1014C24.5364 28.9108 24.5616 28.7088 24.545 28.508L23.309 14.3061H35.894C36.5315 14.3061 37.1135 14.7065 37.3415 15.3005L37.574 15.9065H29.1755C28.9892 15.9065 28.8105 15.9805 28.6786 16.1121C28.5467 16.2437 28.4724 16.4222 28.472 16.6086V21.869C28.472 23.0855 29.462 24.0755 30.6785 24.0755H41.0855L46.2005 25.781C46.8335 25.991 47.261 26.5835 47.261 27.251V28.682H47.2595Z" fill="#1A1A1A"/>
<path d="M43.454 28.682H26.921C26.826 28.6776 26.7311 28.6926 26.642 28.7259C26.5529 28.7592 26.4715 28.8103 26.4027 28.876C26.3339 28.9417 26.2792 29.0206 26.2418 29.1081C26.2043 29.1955 26.1851 29.2897 26.1851 29.3848C26.1851 29.4799 26.2043 29.574 26.2418 29.6615C26.2792 29.7489 26.3339 29.8279 26.4027 29.8936C26.4715 29.9593 26.5529 30.0103 26.642 30.0437C26.7311 30.077 26.826 30.0919 26.921 30.0875H43.454C43.6348 30.0792 43.8054 30.0015 43.9304 29.8706C44.0553 29.7397 44.1251 29.5657 44.1251 29.3848C44.1251 29.2038 44.0553 29.0298 43.9304 28.8989C43.8054 28.7681 43.6348 28.6904 43.454 28.682Z" fill="#1A1A1A"/>
</g>
<defs>
<clipPath id="clip0_629_3534">
<rect width="48" height="48" fill="white" transform="translate(0.666504 0.5)"/>
</clipPath>
</defs>
</svg>
