<svg width="41" height="41" viewBox="0 0 41 41" fill="none" xmlns="http://www.w3.org/2000/svg">
<g clip-path="url(#clip0_629_3558)">
<path d="M36.3138 35.1678L34.012 9.22697C33.9706 8.71362 33.54 8.32447 33.0184 8.32447H28.1664C28.1581 4.01066 24.6475 0.5 20.3336 0.5C16.0198 0.5 12.5092 4.01066 12.5009 8.32447H7.6489C7.13555 8.32447 6.705 8.71362 6.65532 9.22697L4.35352 35.1678C4.35352 35.2009 4.35352 35.2257 4.35352 35.2589C4.35352 38.1485 7.01135 40.5 10.2736 40.5H30.3937C33.6559 40.5 36.3138 38.1485 36.3138 35.2589C36.3138 35.2257 36.3138 35.2009 36.3138 35.1678ZM20.3336 2.48717C23.5545 2.48717 26.1709 5.1036 26.1792 8.32447H14.4881C14.4963 5.1036 17.1128 2.48717 20.3336 2.48717ZM30.3937 38.5046H10.2736C8.12085 38.5046 6.36552 37.0721 6.34068 35.292L8.55968 10.3116H12.5009V13.7975C12.5009 14.3439 12.948 14.791 13.4945 14.791C14.041 14.791 14.4881 14.3439 14.4881 13.7975V10.3116H26.1792V13.7975C26.1792 14.3439 26.6263 14.791 27.1728 14.791C27.7193 14.791 28.1664 14.3439 28.1664 13.7975V10.3116H32.1076L34.3266 35.3002C34.3018 37.0721 32.5464 38.5046 30.3937 38.5046Z" fill="url(#paint0_linear_629_3558)"/>
<path d="M24.4652 21.1831L18.6031 27.0453L16.2102 24.6524C15.821 24.2632 15.1918 24.2632 14.8026 24.6524C14.4135 25.0415 14.4135 25.6708 14.8026 26.06L17.8993 29.1566C18.0897 29.3471 18.3464 29.4464 18.6031 29.4464C18.8597 29.4464 19.1081 29.3471 19.3068 29.1566L25.8728 22.5907C26.2619 22.2015 26.2619 21.5723 25.8728 21.1831C25.4836 20.8022 24.8543 20.8022 24.4652 21.1831Z" fill="url(#paint1_linear_629_3558)"/>
</g>
<defs>
<linearGradient id="paint0_linear_629_3558" x1="4.35352" y1="20.5" x2="36.3138" y2="20.5" gradientUnits="userSpaceOnUse">
<stop stop-color="#FF0000" stop-opacity="0.8"/>
<stop offset="1" stop-color="#7B70B4"/>
</linearGradient>
<linearGradient id="paint1_linear_629_3558" x1="14.5107" y1="25.1719" x2="26.1646" y2="25.1719" gradientUnits="userSpaceOnUse">
<stop stop-color="#FF0000" stop-opacity="0.8"/>
<stop offset="1" stop-color="#7B70B4"/>
</linearGradient>
<clipPath id="clip0_629_3558">
<rect width="40" height="40" fill="white" transform="translate(0.333496 0.5)"/>
</clipPath>
</defs>
</svg>
