<svg width="21" height="20" viewBox="0 0 21 20" fill="none" xmlns="http://www.w3.org/2000/svg">
<path d="M10.8445 14.9012L14.7852 17.3974C15.2889 17.7162 15.9139 17.2418 15.7645 16.6537L14.6264 12.1756C14.5943 12.0508 14.598 11.9195 14.6371 11.7968C14.6763 11.6741 14.7492 11.5649 14.8477 11.4818L18.3814 8.54118C18.8452 8.15493 18.6064 7.38431 18.0095 7.34556L13.3952 7.04556C13.2709 7.03675 13.1517 6.99283 13.0515 6.91891C12.9513 6.845 12.8741 6.74414 12.8289 6.62806L11.1077 2.29431C11.0608 2.17115 10.9776 2.06514 10.8691 1.99034C10.7606 1.91554 10.6319 1.87549 10.5002 1.87549C10.3684 1.87549 10.2397 1.91554 10.1312 1.99034C10.0227 2.06514 9.93953 2.17115 9.89266 2.29431L8.17141 6.62806C8.12636 6.74425 8.04921 6.84525 7.94895 6.91928C7.8487 6.99331 7.72947 7.03732 7.60516 7.04618L2.99079 7.34618C2.39454 7.38431 2.15454 8.15493 2.61891 8.54118L6.15266 11.4824C6.25098 11.5655 6.32389 11.6746 6.36303 11.7972C6.40216 11.9198 6.40594 12.0509 6.37391 12.1756L5.31891 16.3287C5.13954 17.0343 5.89016 17.6037 6.49391 17.2206L10.1564 14.9012C10.2594 14.8357 10.3788 14.801 10.5008 14.801C10.6228 14.801 10.7422 14.8357 10.8452 14.9012H10.8445Z" fill="#FF8A00"/>
</svg>
