<svg width="40" height="41" viewBox="0 0 40 41" fill="none" xmlns="http://www.w3.org/2000/svg">
<g clip-path="url(#clip0_629_3581)">
<path d="M39.375 6.06505C39.3683 5.94135 39.3226 5.82295 39.2444 5.72683C39.1663 5.63072 39.0597 5.56183 38.94 5.53005L20.1375 0.520047C20.0384 0.493643 19.9341 0.493643 19.835 0.520047L1.05871 5.53005C0.939406 5.56198 0.833234 5.63078 0.755343 5.72663C0.677452 5.82248 0.631822 5.94048 0.624962 6.0638C0.612462 6.30005 0.331212 11.8875 2.52871 18.9513C3.81996 23.1038 5.70621 26.8938 8.13246 30.2188C11.1687 34.3775 15.0625 37.8113 19.705 40.425C19.7907 40.4732 19.8871 40.499 19.9854 40.5C20.0837 40.5011 20.1807 40.4775 20.2675 40.4313C24.9187 37.9613 28.8187 34.6138 31.86 30.485C34.29 27.185 36.1775 23.3825 37.47 19.185C39.6687 12.0425 39.3875 6.30505 39.375 6.0638V6.06505ZM36.3375 18.8788C35.0812 22.945 33.2525 26.6225 30.9012 29.81C28.1587 33.5275 24.6912 36.5888 20.5862 38.9188V35.905C25.9087 32.5438 29.9237 27.7875 32.5175 21.76C34.655 16.7975 35.3512 12.0863 35.5587 9.0088C35.568 8.87312 35.5297 8.73845 35.4506 8.62786C35.3715 8.51726 35.2564 8.43761 35.125 8.40255L33.93 8.0838C33.7811 8.0476 33.624 8.07111 33.4922 8.1493C33.3605 8.22749 33.2646 8.35414 33.225 8.50216C33.1855 8.65017 33.2055 8.80778 33.2807 8.94125C33.3559 9.07472 33.4804 9.17345 33.6275 9.2163L34.3525 9.41005C34.1137 12.3938 33.4037 16.7375 31.4412 21.2975C28.9562 27.07 25.1225 31.6313 20.0462 34.86C19.5362 34.5225 19.0362 34.1725 18.5525 33.8125C18.4275 33.725 18.2734 33.6896 18.1228 33.7139C17.9722 33.7382 17.837 33.8202 17.7459 33.9426C17.6548 34.0649 17.615 34.2179 17.6349 34.3692C17.6548 34.5204 17.7328 34.6579 17.8525 34.7525C18.3575 35.1275 18.8812 35.495 19.415 35.8463V38.9C15.3062 36.4425 11.8375 33.3 9.09496 29.55C6.74496 26.335 4.91621 22.6663 3.66121 18.645C1.85371 12.8563 1.76496 7.97505 1.78371 6.55005L19.4137 1.84505V4.5213L4.88371 8.40005C4.75187 8.43519 4.63641 8.51521 4.55724 8.62633C4.47806 8.73745 4.44012 8.87271 4.44996 9.0088C4.60121 11.1263 5.02746 14.4213 6.19746 18.0913C8.13246 24.1613 11.3812 29.2238 15.855 33.1413C15.9128 33.1923 15.9802 33.2313 16.0533 33.2561C16.1263 33.2809 16.2035 33.2909 16.2804 33.2857C16.3574 33.2805 16.4325 33.26 16.5015 33.2256C16.5705 33.1912 16.632 33.1434 16.6825 33.085C16.7846 32.9681 16.8361 32.8154 16.8258 32.6605C16.8155 32.5057 16.7442 32.3612 16.6275 32.2588C12.3162 28.4838 9.18371 23.5988 7.31496 17.7363C6.45743 15.0296 5.90156 12.2364 5.65746 9.40755L19.9862 5.58255L31.095 8.5438C31.1702 8.56645 31.2493 8.57375 31.3274 8.56525C31.4055 8.55675 31.4811 8.53263 31.5498 8.49432C31.6184 8.45601 31.6786 8.4043 31.7268 8.34225C31.7751 8.2802 31.8103 8.20909 31.8305 8.13314C31.8507 8.0572 31.8555 7.97796 31.8444 7.90015C31.8334 7.82234 31.8068 7.74754 31.7663 7.6802C31.7258 7.61286 31.6722 7.55435 31.6086 7.50816C31.545 7.46196 31.4728 7.42902 31.3962 7.4113L20.5875 4.5288V1.85255L38.2162 6.55005C38.235 8.00005 38.15 13.0113 36.3375 18.8788Z" fill="#1A1A1A"/>
<path d="M28.8163 14.1926C28.6461 14.021 28.4436 13.8849 28.2204 13.7922C27.9973 13.6995 27.7579 13.6521 27.5163 13.6526C27.2747 13.6519 27.0354 13.6992 26.8122 13.7916C26.5891 13.8841 26.3865 14.02 26.2163 14.1913L18.7475 21.6601L14.67 17.5826C14.4997 17.4115 14.297 17.2758 14.0739 17.1836C13.8507 17.0913 13.6115 17.0442 13.37 17.0451C13.1285 17.0442 12.8893 17.0913 12.6661 17.1836C12.443 17.2758 12.2404 17.4115 12.07 17.5826C11.8987 17.7529 11.7629 17.9555 11.6704 18.1786C11.5779 18.4018 11.5306 18.641 11.5313 18.8826C11.5313 19.3738 11.7225 19.8363 12.0688 20.1826L17.4475 25.5601C17.6178 25.7315 17.8203 25.8673 18.0435 25.9598C18.2666 26.0523 18.5059 26.0995 18.7475 26.0988C18.989 26.0997 19.2282 26.0527 19.4514 25.9604C19.6745 25.8681 19.8772 25.7325 20.0475 25.5613L28.8163 16.7926C29.1638 16.4451 29.3538 15.9826 29.3538 15.4926C29.3546 15.2511 29.3076 15.0119 29.2153 14.7887C29.123 14.5656 28.9874 14.3629 28.8163 14.1926ZM27.9875 15.9626L19.2188 24.7313C19.1572 24.7939 19.0839 24.8435 19.003 24.8774C18.9221 24.9113 18.8352 24.9287 18.7475 24.9287C18.6598 24.9287 18.573 24.9113 18.492 24.8774C18.4111 24.8435 18.3378 24.7939 18.2763 24.7313L12.8988 19.3538C12.8364 19.2922 12.7869 19.2188 12.7531 19.138C12.7193 19.0571 12.7019 18.9703 12.7019 18.8826C12.7019 18.7949 12.7193 18.7081 12.7531 18.6272C12.7869 18.5463 12.8364 18.473 12.8988 18.4113C12.9603 18.3488 13.0336 18.2992 13.1145 18.2653C13.1955 18.2314 13.2823 18.214 13.37 18.214C13.4577 18.214 13.5446 18.2314 13.6255 18.2653C13.7064 18.2992 13.7797 18.3488 13.8413 18.4113L18.3325 22.9026C18.5625 23.1313 18.9325 23.1313 19.1613 22.9026L27.045 15.0201C27.1066 14.9577 27.18 14.9082 27.2609 14.8744C27.3418 14.8406 27.4286 14.8232 27.5163 14.8232C27.6039 14.8232 27.6907 14.8406 27.7716 14.8744C27.8525 14.9082 27.9259 14.9577 27.9875 15.0201C28.0499 15.0817 28.0994 15.1551 28.1332 15.236C28.167 15.3169 28.1844 15.4037 28.1844 15.4913C28.1844 15.579 28.167 15.6658 28.1332 15.7467C28.0994 15.8276 28.0499 15.901 27.9875 15.9626Z" fill="#1A1A1A"/>
</g>
<defs>
<clipPath id="clip0_629_3581">
<rect width="40" height="40" fill="white" transform="translate(0 0.5)"/>
</clipPath>
</defs>
</svg>
